<svg width="240" height="240" viewBox="0 0 240 240" fill="none" xmlns="http://www.w3.org/2000/svg">
<path d="M209 0C226.121 0 240 13.8792 240 31V209C240 226.121 226.121 240 209 240H31C13.8792 240 0 226.121 0 209V31C0 13.8792 13.8792 0 31 0H209ZM212.65 55.6191C207.978 52.3652 201.551 53.5147 198.297 58.1875L141.007 140.459L90.4277 92.373C89.627 91.6118 88.7349 91.0061 87.79 90.5518C83.4884 87.7843 77.6994 88.5793 74.3252 92.6006L23.624 153.023C19.9639 157.385 20.5335 163.889 24.8955 167.549C29.2575 171.209 35.7607 170.64 39.4209 166.278L83.2705 114.021L134.812 163.021C138.908 166.914 145.363 166.779 149.296 162.744C150.655 162.003 151.869 160.946 152.813 159.589L215.219 69.9717C218.473 65.2989 217.323 58.8732 212.65 55.6191Z" fill="currentColor"/>
</svg>
